<svg xmlns="http://www.w3.org/2000/svg" xmlns:xlink="http://www.w3.org/1999/xlink" width="584" height="50" viewBox="0 0 584 50"><defs><style>.a{fill:url(#a);}.b{fill:#fff;font-size:14px;font-family:Montserrat-Bold, Montserrat;font-weight:700;letter-spacing:0.15em;}.c{fill:#f9f9f9;}</style><linearGradient id="a" y1="0.563" x2="1" y2="0.551" gradientUnits="objectBoundingBox"><stop offset="0" stop-color="#3d48a8"/><stop offset="1" stop-color="#4700ef"/></linearGradient></defs><rect class="a" width="584" height="50" rx="8"/><text class="b" transform="translate(309.547 31)"><tspan x="-93.1" y="0">AÑADIR AL CARRITO</tspan></text><g transform="translate(181.453 12.401)"><path class="c" d="M11.907,30.7a1.453,1.453,0,1,1-1.453-1.453A1.453,1.453,0,0,1,11.907,30.7Z" transform="translate(-3.186 -9.558)"/><path class="c" d="M27.657,30.7A1.453,1.453,0,1,1,26.2,29.25,1.453,1.453,0,0,1,27.657,30.7Z" transform="translate(-8.762 -9.558)"/><path class="c" d="M20.349,5.884H4.23l-.6-3.052a.727.727,0,0,0-.727-.581H0V3.7H2.311L5.087,17.657a.727.727,0,0,0,.727.581H18.9V16.785H6.41l-.6-2.907H18.9a.727.727,0,0,0,.727-.567L21.076,6.77a.727.727,0,0,0-.727-.886Zm-2.035,6.541H5.537L4.52,7.337H19.44Z" transform="translate(0 0)"/></g></svg>