<svg xmlns="http://www.w3.org/2000/svg" width="27.213" height="27.213" viewBox="0 0 27.213 27.213"><defs><style>.a{fill:#3d43ac;}</style></defs><path class="a" d="M18.142,13.607a4.537,4.537,0,0,0-4.535-4.536,4.537,4.537,0,0,0-4.536,4.536,4.537,4.537,0,0,0,4.536,4.536,4.537,4.537,0,0,0,4.535-4.536Zm2.445,0a6.956,6.956,0,0,1-6.98,6.98,6.956,6.956,0,0,1-6.98-6.98,6.956,6.956,0,0,1,6.98-6.98,6.956,6.956,0,0,1,6.98,6.98ZM22.5,6.343a1.63,1.63,0,1,1-2.781-1.151A1.63,1.63,0,0,1,22.5,6.343Zm-8.893-3.9-1.355-.009q-1.231-.009-1.869,0t-1.71.053a13.972,13.972,0,0,0-1.825.177,7.041,7.041,0,0,0-1.266.329A4.634,4.634,0,0,0,2.994,5.581a7.11,7.11,0,0,0-.328,1.267,13.972,13.972,0,0,0-.177,1.825q-.044,1.072-.053,1.71t0,1.869q.009,1.231.009,1.355t-.009,1.355q-.009,1.231,0,1.869t.053,1.71a13.972,13.972,0,0,0,.177,1.825,7.067,7.067,0,0,0,.328,1.265,4.634,4.634,0,0,0,2.587,2.587,7.11,7.11,0,0,0,1.267.328,13.973,13.973,0,0,0,1.825.177q1.072.044,1.71.053t1.869,0l1.355-.009,1.355.009q1.231.009,1.869,0t1.71-.053a13.971,13.971,0,0,0,1.825-.177,7.11,7.11,0,0,0,1.267-.328,4.634,4.634,0,0,0,2.587-2.587,7.11,7.11,0,0,0,.328-1.267,13.972,13.972,0,0,0,.177-1.825q.044-1.072.053-1.71t0-1.869q-.009-1.231-.009-1.355t.009-1.355q.009-1.231,0-1.869t-.053-1.71a13.97,13.97,0,0,0-.177-1.825,6.974,6.974,0,0,0-.33-1.265,4.634,4.634,0,0,0-2.587-2.587,7.11,7.11,0,0,0-1.267-.328,13.972,13.972,0,0,0-1.825-.177q-1.072-.044-1.71-.053t-1.869,0l-1.355.009ZM27.213,13.607q0,4.057-.088,5.616a8.31,8.31,0,0,1-2.2,5.7,8.31,8.31,0,0,1-5.7,2.2q-1.559.088-5.616.088T7.99,27.125a8.31,8.31,0,0,1-5.7-2.2,8.31,8.31,0,0,1-2.2-5.7Q0,17.664,0,13.607T.088,7.99a8.31,8.31,0,0,1,2.2-5.7,8.31,8.31,0,0,1,5.7-2.2Q9.549,0,13.607,0t5.616.088a8.31,8.31,0,0,1,5.7,2.2,8.31,8.31,0,0,1,2.2,5.7Q27.213,9.55,27.213,13.607Z"/></svg>