<svg xmlns="http://www.w3.org/2000/svg" width="32.265" height="22.517" viewBox="0 0 32.265 22.517"><defs><style>.a{fill:#3d43ac;}</style></defs><path class="a" d="M31.887,8.42a36.81,36.81,0,0,1,.378,5.214v2.418l-.378,5.214A5.455,5.455,0,0,1,30.6,24.439a5.453,5.453,0,0,1-3.174,1.36q-2.04.151-4.874.227t-4.647.075H16.094q-8.387-.075-10.956-.3l-.6-.075-.982-.151-.945-.378-.982-.755L.87,23.192l-.416-1.4L.3,21.265A45.944,45.944,0,0,1,0,16.052V13.633L.3,8.42A5.455,5.455,0,0,1,1.587,5.246a4.984,4.984,0,0,1,3.249-1.36q2.04-.151,4.836-.227t4.609-.075h1.813q6.8,0,11.334.3A4.89,4.89,0,0,1,30.6,5.246a3.112,3.112,0,0,1,.529.718,6.129,6.129,0,0,1,.378.831,5.4,5.4,0,0,1,.227.793,5.1,5.1,0,0,0,.151.6v.227ZM20.478,15.069l1.058-.529-8.689-4.534v9.067Z" transform="translate(0 -3.584)"/></svg>